<svg id="Layer_1" data-name="Layer 1" xmlns="http://www.w3.org/2000/svg" viewBox="0 0 140.32 200"><defs><style>.cls-1{fill:#141414;}</style></defs><title>logo</title><rect class="cls-1" x="105.51" width="15.78" height="200"/><rect class="cls-1" x="20.01" width="101.28" height="15.78"/><rect class="cls-1" x="82.82" y="-1.23" width="15.78" height="62.63" transform="translate(5.3 72.95) rotate(-45)"/><circle class="cls-1" cx="44.1" cy="58" r="13.86"/><rect class="cls-1" x="24.27" y="60.77" width="9.81" height="2.13" rx="0.87"/><rect class="cls-1" x="25.97" y="10.87" width="2.99" height="51.17" rx="1.22"/><rect class="cls-1" x="24.27" y="63.33" width="9.81" height="2.13" rx="0.87"/><rect class="cls-1" x="24.27" y="65.88" width="12.79" height="2.13" rx="0.87"/><path class="cls-1" d="M38.92,69a1,1,0,0,0-.34-.11H20.72a.57.57,0,0,0-.46.24C18.49,71.64,3.35,93.75,0,113a.57.57,0,0,0,.14.48c.64.68,3,2.69,8.34,2.34,0,0,0,1.53,6.92-14a.56.56,0,0,1,1.08.24l-2,58.35a.58.58,0,0,0,.56.58H28.42a.56.56,0,0,0,.56-.54l1.68-42.78a.51.51,0,0,1,.13-.33c.25-.3.72-.71,1.16.15v42.94a.56.56,0,0,0,.56.56H45.87a.58.58,0,0,0,.57-.57h0l-.81-57.8a.56.56,0,0,1,.54-.58.55.55,0,0,1,.53.33c1.53,3.27,4.19,9.13,5.19,12.23a.56.56,0,0,0,.46.4c1.42.19,6.66.62,9.29-2.83a.54.54,0,0,0,.1-.46C61.1,108.9,55.15,84,43.89,72.28Z" transform="translate(0)"/><circle class="cls-1" cx="21.71" cy="160.98" r="7.25"/><circle class="cls-1" cx="39.2" cy="160.55" r="7.25"/><path class="cls-1" d="M123.83,20.55q2.11-11,3.09-17.55l3.93-.29q-.94,4-1.54,7.16l2.4-.28q.33-1.71.6-3.33c.19-1.09.42-2.2.7-3.34.64-.11,1.31-.19,2-.25l1.47-.1.4,0a85.4,85.4,0,0,0-2.27,10.65q-.56,3.09-1,6.31l-3.8.43c.21-1,.4-1.88.56-2.73s.33-1.7.5-2.54.3-1.56.41-2.16l-2.37.22c-.36,2-.81,4.36-1.35,7.07Z" transform="translate(0)"/><path class="cls-1" d="M123.62,24.75V23.54h10.75v1.21Z" transform="translate(0)"/><path class="cls-1" d="M128.25,45.5l-1,3.49-1.27.16-1.43.18-1.47.18c.65-2.15,1.19-4,1.65-5.46s.81-2.71,1.1-3.66.56-1.91.84-2.85l.81-2.73c.26-.87.49-1.68.7-2.41a58.36,58.36,0,0,0,6.69-.75c-.15,1.56-.26,3.41-.36,5.55q-.3,6.38-.52,11.76l-1.39.22-1.4.21-1.31.21c.17-1.52.32-2.88.45-4.1Zm.56-2.42,1.76-.12a4.15,4.15,0,0,1,0-.49c0-.22,0-.49.08-.79.12-1.69.26-3.27.4-4.72l.17-2.11-.38,0Z" transform="translate(0)"/><path class="cls-1" d="M123.62,53.9V52.69h10.51V53.9Z" transform="translate(0)"/><path class="cls-1" d="M133.94,77.47a16.88,16.88,0,0,0-2,.4c-1.11.27-1.78.45-2,.53-.18-2.12-.32-3.67-.44-4.64s-.21-1.71-.28-2.2q-.09-1-.33-2.46c0,.3-.11.66-.19,1.08s-.16.87-.23,1.36c-.26,1.52-.65,3.7-1.19,6.55l-3.56.83q2.64-13.12,3.13-17.72l1.43-.11Q129,61,129.64,61c.45,0,.83,0,1.17-.09.2,1.25.37,2.28.49,3.1s.24,1.48.33,2,.16,1,.24,1.52c.16,1,.33,1.82.5,2.56.07-.33.14-.72.22-1.16s.16-.91.26-1.41.19-1,.31-1.52.24-1.18.41-2,.38-1.84.63-3.07l3-.36Q134.55,72.41,133.94,77.47Z" transform="translate(0)"/><path class="cls-1" d="M123.62,83.05V81.84h11v1.21Z" transform="translate(0)"/><path class="cls-1" d="M134.08,94.62c-.27-1.2-.74-1.81-1.4-1.81a1.93,1.93,0,0,0-1.34.87A10.34,10.34,0,0,0,130,95.9a16,16,0,0,0-1.55,6.19,3.81,3.81,0,0,0,.46,2.16,1.28,1.28,0,0,0,1,.64,2.61,2.61,0,0,0,1.11-.25A3.1,3.1,0,0,0,132,104a3.51,3.51,0,0,0,1-2.35l-2.59.38.45-2.39q3.34-.43,6-.9a12.71,12.71,0,0,1-1,4.3,11.12,11.12,0,0,1-1.93,3.07,7.94,7.94,0,0,1-2.43,1.85,5.45,5.45,0,0,1-2.34.62,4.18,4.18,0,0,1-1.84-.39,3.79,3.79,0,0,1-1.4-1.2,7.9,7.9,0,0,1-1.28-4.8,14.94,14.94,0,0,1,.9-5.42,12.9,12.9,0,0,1,2.27-3.88,9.09,9.09,0,0,1,2.94-2.31,6.44,6.44,0,0,1,2.74-.76,4.31,4.31,0,0,1,1.87.34,3.31,3.31,0,0,1,1.16.91,4.5,4.5,0,0,1,.9,3Z" transform="translate(0)"/><path class="cls-1" d="M123.62,112.2V111h12.12v1.22Z" transform="translate(0)"/><path class="cls-1" d="M132.23,128.6q2.73-7.32,3.61-9.18c.8-.09,1.46-.18,2-.26l1.31-.2c.37,0,.76-.12,1.19-.2q-1.17,6.88-1.95,17.34l-4.24.76c0-.57.07-1.49.21-2.75l.33-2.85c.16-1.44.31-2.55.45-3.34h-.21c-.22.68-.47,1.39-.75,2.14s-.55,1.52-.84,2.29-.56,1.54-.84,2.29-.52,1.47-.72,2.15c-.57,0-1.06,0-1.45.07l-1.42.07.78-9h-.36a9.85,9.85,0,0,1-.25,1l-.45,1.71c-.16.64-.35,1.3-.54,2l-.56,1.91c-.29,1-.49,1.72-.62,2.11l-4,.26q3.87-11.67,5.25-17.07a20.14,20.14,0,0,0,2.53-.15c.8-.09,1.65-.18,2.57-.26,0,.35-.1.74-.16,1.19s-.12.91-.19,1.4-.14,1-.22,1.5-.18,1.18-.3,2-.27,1.83-.46,3Z" transform="translate(0)"/><path class="cls-1" d="M123.62,141.35v-1.22h15v1.22Z" transform="translate(0)"/><path class="cls-1" d="M123.62,170.5v-1.22h14.23v1.22Z" transform="translate(0)"/><path class="cls-1" d="M133.94,194.07a14.77,14.77,0,0,0-2,.4c-1.11.27-1.78.44-2,.52-.18-2.12-.32-3.66-.44-4.64s-.21-1.7-.28-2.19c-.06-.68-.17-1.5-.33-2.47,0,.3-.11.66-.19,1.08s-.16.88-.23,1.37c-.26,1.51-.65,3.7-1.19,6.54l-3.56.83q2.64-13.11,3.13-17.72l1.43-.1,1.32-.1c.45,0,.83-.05,1.17-.08.2,1.25.37,2.28.49,3.09s.24,1.49.33,2,.16,1,.24,1.52c.16,1,.33,1.82.5,2.56.07-.33.14-.72.22-1.16s.16-.92.26-1.41.19-1,.31-1.52.24-1.18.41-2,.38-1.83.63-3.07l3-.35Q134.55,189,133.94,194.07Z" transform="translate(0)"/><path class="cls-1" d="M123.62,199.65v-1.22h11v1.22Z" transform="translate(0)"/></svg>